<?xml version="1.0" encoding="UTF-8"?>
<svg width="48px" height="32px" viewBox="0 0 48 32" version="1.1" xmlns="http://www.w3.org/2000/svg" xmlns:xlink="http://www.w3.org/1999/xlink">
    <!-- Generator: Sketch 56.2 (81672) - https://sketch.com -->
    <title>Bed Icon</title>
    <desc>Created with Sketch.</desc>
    <g id="Page-1" stroke="none" stroke-width="1" fill="none" fill-rule="evenodd">
        <g id="Mobile---Dashboard" transform="translate(-89.000000, -342.000000)">
            <g id="Log-Sleep" transform="translate(0.000000, 308.000000)">
                <g id="Bed-Icon" transform="translate(89.500000, 34.000000)">
                    <polygon id="Path" points="0 0 47 0 47 32 0 32"></polygon>
                    <path d="M12.8181818,17.0666667 C16.3645455,17.0666667 19.2272727,14.208 19.2272727,10.6666667 C19.2272727,7.12533333 16.3645455,4.26666667 12.8181818,4.26666667 C9.27181818,4.26666667 6.40909091,7.12533333 6.40909091,10.6666667 C6.40909091,14.208 9.27181818,17.0666667 12.8181818,17.0666667 Z M38.4545455,4.26666667 L25.6363636,4.26666667 C23.2863636,4.26666667 21.3636364,6.18666667 21.3636364,8.53333333 L21.3636364,19.2 L4.27272727,19.2 L4.27272727,2.13333333 C4.27272727,0.96 3.31136364,0 2.13636364,0 C0.961363636,0 0,0.96 0,2.13333333 L0,29.8666667 C0,31.04 0.961363636,32 2.13636364,32 C3.31136364,32 4.27272727,31.04 4.27272727,29.8666667 L4.27272727,25.6 L42.7272727,25.6 L42.7272727,29.8666667 C42.7272727,31.04 43.6886364,32 44.8636364,32 C46.0386364,32 47,31.04 47,29.8666667 L47,12.8 C47,8.08533333 43.1759091,4.26666667 38.4545455,4.26666667 Z" id="Shape" fill="#100359" fill-rule="nonzero"></path>
                </g>
            </g>
        </g>
    </g>
</svg>