<?xml version="1.0" encoding="UTF-8"?>
<svg width="43px" height="43px" viewBox="0 0 43 43" version="1.1" xmlns="http://www.w3.org/2000/svg" xmlns:xlink="http://www.w3.org/1999/xlink">
    <!-- Generator: Sketch 56.2 (81672) - https://sketch.com -->
    <title>Alarm Icon</title>
    <desc>Created with Sketch.</desc>
    <g id="Page-1" stroke="none" stroke-width="1" fill="none" fill-rule="evenodd">
        <g id="Mobile---Dashboard" transform="translate(-108.000000, -437.000000)">
            <g id="Alarm" transform="translate(0.000000, 409.000000)">
                <g id="Alarm-Icon" transform="translate(108.500000, 28.000000)">
                    <polygon id="Path" points="0 0 42 0 42 43 0 43"></polygon>
                    <path d="M29.5220992,28.3271184 L22.1010464,23.9795979 L22.1010464,14.132464 C22.1010464,13.2629599 21.3963767,12.5673566 20.5155396,12.5673566 L20.383414,12.5673566 C19.5025769,12.5673566 18.7979072,13.2629599 18.7979072,14.132464 L18.7979072,24.3926123 C18.7979072,25.1534284 19.1942839,25.8707693 19.8769327,26.2620461 L27.9145714,31.0225811 C28.663283,31.4573331 29.6322038,31.2399571 30.0726224,30.5008786 C30.5350619,29.7400625 30.2928317,28.7618704 29.5220992,28.3271184 L29.5220992,28.3271184 Z M41.215212,6.06781347 L34.4327662,0.50298725 C33.5078872,-0.257828836 32.1205687,-0.149140823 31.3278153,0.785576081 C30.5570828,1.69855538 30.6892084,3.06802434 31.6140874,3.85057802 L38.3745123,9.41540425 C39.2993913,10.1762203 40.6867098,10.0675323 41.4794632,9.13281541 C42.2722166,8.21983611 42.140091,6.85036716 41.215212,6.06781347 L41.215212,6.06781347 Z M3.60346677,9.41540425 L10.3638917,3.85057802 C11.3107916,3.06802434 11.4429172,1.69855538 10.6501638,0.785576081 C9.87943129,-0.149140823 8.49211282,-0.257828836 7.56723384,0.50298725 L0.784787971,6.06781347 C-0.140091011,6.85036716 -0.27221658,8.21983611 0.520536833,9.13281541 C1.29126932,10.0675323 2.67858779,10.1762203 3.60346677,9.41540425 Z M21,3.87231563 C10.0555987,3.87231563 1.18116468,12.6325694 1.18116468,23.4361578 C1.18116468,34.2397462 10.0555987,43 21,43 C31.9444013,43 40.8188353,34.2397462 40.8188353,23.4361578 C40.8188353,12.6325694 31.9444013,3.87231563 21,3.87231563 Z M21,38.6524795 C12.4999217,38.6524795 5.5853503,31.8268724 5.5853503,23.4361578 C5.5853503,15.0454433 12.4999217,8.21983611 21,8.21983611 C29.5000783,8.21983611 36.4146497,15.0454433 36.4146497,23.4361578 C36.4146497,31.8268724 29.5000783,38.6524795 21,38.6524795 Z" id="Shape" fill="#100359" fill-rule="nonzero"></path>
                </g>
            </g>
        </g>
    </g>
</svg>