<?xml version="1.0" encoding="UTF-8"?>
<svg width="50px" height="35px" viewBox="0 0 50 35" version="1.1" xmlns="http://www.w3.org/2000/svg" xmlns:xlink="http://www.w3.org/1999/xlink">
    <!-- Generator: Sketch 56.2 (81672) - https://sketch.com -->
    <title>Devices Icon</title>
    <desc>Created with Sketch.</desc>
    <g id="Page-1" stroke="none" stroke-width="1" fill="none" fill-rule="evenodd">
        <g id="Mobile---Dashboard" transform="translate(-98.000000, -744.000000)" fill="#F6F4FF" fill-rule="nonzero">
            <g id="Devices" transform="translate(0.000000, 712.000000)">
                <g id="Devices-Icon" transform="translate(97.500000, 32.000000)">
                    <path d="M5.36363636,6.5625 C5.36363636,5.359375 6.34545455,4.375 7.54545455,4.375 L42.4545455,4.375 C43.6545455,4.375 44.6363636,3.390625 44.6363636,2.1875 C44.6363636,0.984375 43.6545455,0 42.4545455,0 L5.36363636,0 C2.96363636,0 1,1.96875 1,4.375 L1,30.625 C1,33.03125 2.96363636,35 5.36363636,35 L11.9090909,35 C13.1090909,35 14.0909091,34.015625 14.0909091,32.8125 C14.0909091,31.609375 13.1090909,30.625 11.9090909,30.625 L7.54545455,30.625 C6.34545455,30.625 5.36363636,29.640625 5.36363636,28.4375 L5.36363636,6.5625 Z M25,17.5 L20.6363636,17.5 C19.4363636,17.5 18.4545455,18.484375 18.4545455,19.6875 L18.4545455,21.39375 C17.1236364,22.596875 16.2727273,24.303125 16.2727273,26.25 C16.2727273,28.196875 17.1236364,29.903125 18.4545455,31.10625 L18.4545455,32.8125 C18.4545455,34.015625 19.4363636,35 20.6363636,35 L25,35 C26.2,35 27.1818182,34.015625 27.1818182,32.8125 L27.1818182,31.10625 C28.5127273,29.903125 29.3636364,28.175 29.3636364,26.25 C29.3636364,24.325 28.5127273,22.596875 27.1818182,21.39375 L27.1818182,19.6875 C27.1818182,18.484375 26.2,17.5 25,17.5 Z M22.8181818,29.53125 C21.0072727,29.53125 19.5454545,28.065625 19.5454545,26.25 C19.5454545,24.434375 21.0072727,22.96875 22.8181818,22.96875 C24.6290909,22.96875 26.0909091,24.434375 26.0909091,26.25 C26.0909091,28.065625 24.6290909,29.53125 22.8181818,29.53125 Z M46.8181818,8.75 L33.7272727,8.75 C32.6363636,8.75 31.5454545,9.84375 31.5454545,10.9375 L31.5454545,32.8125 C31.5454545,33.90625 32.6363636,35 33.7272727,35 L46.8181818,35 C47.9090909,35 49,33.90625 49,32.8125 L49,10.9375 C49,9.84375 47.9090909,8.75 46.8181818,8.75 Z M44.6363636,30.625 L35.9090909,30.625 L35.9090909,13.125 L44.6363636,13.125 L44.6363636,30.625 Z" id="Shape"></path>
                </g>
            </g>
        </g>
    </g>
</svg>