<?xml version="1.0" encoding="UTF-8"?>
<svg width="49px" height="48px" viewBox="0 0 49 48" version="1.1" xmlns="http://www.w3.org/2000/svg" xmlns:xlink="http://www.w3.org/1999/xlink">
    <!-- Generator: Sketch 56.2 (81672) - https://sketch.com -->
    <title>Mood Icon - Light Big</title>
    <desc>Created with Sketch.</desc>
    <g id="Page-1" stroke="none" stroke-width="1" fill="none" fill-rule="evenodd">
        <g id="Mobile---Dashboard" transform="translate(-102.000000, -637.000000)">
            <g id="Moods" transform="translate(0.000000, 611.000000)">
                <g id="Mood-Icon" transform="translate(102.500000, 26.000000)">
                    <polygon id="Path" points="0 0 48 0 48 48 0 48"></polygon>
                    <path d="M23.976,0 C10.728,0 0,10.752 0,24 C0,37.248 10.728,48 23.976,48 C37.248,48 48,37.248 48,24 C48,10.752 37.248,0 23.976,0 Z M24,43.2 C13.392,43.2 4.8,34.608 4.8,24 C4.8,13.392 13.392,4.8 24,4.8 C34.608,4.8 43.2,13.392 43.2,24 C43.2,34.608 34.608,43.2 24,43.2 Z M32.4,21.6 C34.392,21.6 36,19.992 36,18 C36,16.008 34.392,14.4 32.4,14.4 C30.408,14.4 28.8,16.008 28.8,18 C28.8,19.992 30.408,21.6 32.4,21.6 Z M15.6,21.6 C17.592,21.6 19.2,19.992 19.2,18 C19.2,16.008 17.592,14.4 15.6,14.4 C13.608,14.4 12,16.008 12,18 C12,19.992 13.608,21.6 15.6,21.6 Z M24,37.2 C28.872,37.2 33.12,34.536 35.4,30.6 C35.856,29.808 35.28,28.8 34.344,28.8 L13.656,28.8 C12.744,28.8 12.144,29.808 12.6,30.6 C14.88,34.536 19.128,37.2 24,37.2 Z" id="Shape" fill="#F6F4FF" fill-rule="nonzero"></path>
                </g>
            </g>
        </g>
    </g>
</svg>