<?xml version="1.0" encoding="UTF-8"?>
<svg width="46px" height="43px" viewBox="0 0 46 43" version="1.1" xmlns="http://www.w3.org/2000/svg" xmlns:xlink="http://www.w3.org/1999/xlink">
    <!-- Generator: Sketch 56.2 (81672) - https://sketch.com -->
    <title>Lightbulb Icon</title>
    <desc>Created with Sketch.</desc>
    <g id="Page-1" stroke="none" stroke-width="1" fill="none" fill-rule="evenodd">
        <g id="Mobile---Dashboard" transform="translate(-98.000000, -841.000000)">
            <g id="Insights" transform="translate(0.000000, 813.000000)">
                <g id="Lightbulb-Icon" transform="translate(121.000000, 49.500000) scale(1, -1) translate(-121.000000, -49.500000) translate(98.500000, 28.000000)">
                    <polygon id="Path" points="0 0 45 0 45 43 0 43"></polygon>
                    <path d="M6.65075034,36.4114558 C7.44884038,37.2119332 8.73806276,37.2119332 9.5361528,36.4114558 L10.3342428,35.6109785 C11.1323329,34.8105012 11.111869,33.5174224 10.3342428,32.7374702 L10.313779,32.7169451 C9.51568895,31.9164678 8.22646658,31.9164678 7.42837653,32.7169451 L6.63028649,33.5174224 C5.8526603,34.3384248 5.8526603,35.6109785 6.65075034,36.4114558 Z M22.4897681,43 L22.5102319,43 C23.6357435,43 24.5361528,42.0968974 24.5361528,40.9680191 L24.5361528,38.9976134 C24.5361528,37.8687351 23.6357435,36.9656325 22.5102319,36.9656325 L22.4897681,36.9656325 C21.3642565,36.9656325 20.4638472,37.8687351 20.4638472,38.9976134 L20.4638472,40.9680191 C20.4638472,42.0968974 21.3642565,43 22.4897681,43 Z M4.11323329,18.4725537 L2.02592087,18.4725537 C0.900409277,18.4725537 0,19.3756563 0,20.5045346 L0,20.5250597 C0,21.6539379 0.900409277,22.5570406 2.02592087,22.5570406 L4.09276944,22.5570406 C5.21828104,22.5570406 6.11869031,21.6539379 6.11869031,20.5250597 L6.11869031,20.5045346 C6.13915416,19.3756563 5.23874488,18.4725537 4.11323329,18.4725537 Z M28.6493861,9.8725537 L28.6493861,2.05250597 C28.6493861,0.923627685 27.728513,0 26.6030014,0 L18.4174625,0 C17.2919509,0 16.3710778,0.923627685 16.3710778,2.05250597 L16.3710778,9.8725537 C12.1964529,12.2945107 9.57708049,17.0973747 10.3751705,22.4544153 C11.1937244,27.8114558 15.6139154,32.1011933 20.9754434,32.7579952 C28.4242838,33.6610979 34.7885402,27.8319809 34.7885402,20.5455847 C34.7885402,15.9684964 32.3124147,12.0071599 28.6493861,9.8725537 Z M38.8813097,20.5045346 L38.8813097,20.5250597 C38.8813097,21.6539379 39.781719,22.5570406 40.9072306,22.5570406 L42.9740791,22.5570406 C44.0995907,22.5570406 45,21.6539379 45,20.5250597 L45,20.5045346 C45,19.3756563 44.0995907,18.4725537 42.9740791,18.4725537 L40.9072306,18.4725537 C39.781719,18.4725537 38.8813097,19.3756563 38.8813097,20.5045346 Z M34.6657572,35.6315036 L35.4638472,36.4319809 C36.2619372,37.2324582 37.5511596,37.2324582 38.3492497,36.4319809 C39.1473397,35.6315036 39.1473397,34.3384248 38.3492497,33.5379475 L37.5511596,32.7374702 C36.7530696,31.9369928 35.4638472,31.9575179 34.686221,32.7374702 C33.8676671,33.5584726 33.8676671,34.8310263 34.6657572,35.6315036 Z" id="Shape" fill="#F6F4FF" fill-rule="nonzero"></path>
                </g>
            </g>
        </g>
    </g>
</svg>