<?xml version="1.0" encoding="UTF-8"?>
<svg width="16px" height="16px" viewBox="0 0 16 16" version="1.1" xmlns="http://www.w3.org/2000/svg" xmlns:xlink="http://www.w3.org/1999/xlink">
    <!-- Generator: Sketch 56.2 (81672) - https://sketch.com -->
    <title>X</title>
    <desc>Created with Sketch.</desc>
    <g id="Page-1" stroke="none" stroke-width="1" fill="none" fill-rule="evenodd">
        <g id="Mobile---Edit-Sleep" transform="translate(-286.000000, -145.000000)">
            <g id="X" transform="translate(285.000000, 144.000000)">
                <polygon id="Path" points="0 0 16.9411765 0 16.9411765 16.9411765 0 16.9411765"></polygon>
                <path d="M16.5966673,1.76805193 C16.1373218,1.30870642 15.3953021,1.30870642 14.9359566,1.76805193 L9.17647059,7.51575989 L3.41698454,1.75627384 C2.95763903,1.29692833 2.21561935,1.29692833 1.75627384,1.75627384 C1.29692833,2.21561935 1.29692833,2.95763903 1.75627384,3.41698454 L7.51575989,9.17647059 L1.75627384,14.9359566 C1.29692833,15.3953021 1.29692833,16.1373218 1.75627384,16.5966673 C2.21561935,17.0560128 2.95763903,17.0560128 3.41698454,16.5966673 L9.17647059,10.8371813 L14.9359566,16.5966673 C15.3953021,17.0560128 16.1373218,17.0560128 16.5966673,16.5966673 C17.0560128,16.1373218 17.0560128,15.3953021 16.5966673,14.9359566 L10.8371813,9.17647059 L16.5966673,3.41698454 C17.0442348,2.96941712 17.0442348,2.21561935 16.5966673,1.76805193 Z" id="Path" fill="#F6F4FF" fill-rule="nonzero"></path>
            </g>
        </g>
    </g>
</svg>